<mxfile host="app.diagrams.net" agent="Mozilla/5.0 (Windows NT 10.0; Win64; x64) AppleWebKit/537.36 (KHTML, like Gecko) Chrome/136.0.0.0 Safari/537.36" version="27.0.2">
  <diagram name="Page-1" id="n3rQ4XZsZPr-WHWTvmwM">
    <mxGraphModel dx="983" dy="609" grid="1" gridSize="10" guides="1" tooltips="1" connect="1" arrows="1" fold="1" page="1" pageScale="1" pageWidth="850" pageHeight="1100" math="0" shadow="0">
      <root>
        <mxCell id="0" />
        <mxCell id="1" parent="0" />
        <mxCell id="L5nCu_Zbsk3tijszvhnK-1" value="Blue-Internet-Host" style="ellipse;whiteSpace=wrap;html=1;aspect=fixed;" parent="1" vertex="1">
          <mxGeometry x="60" y="970" width="80" height="80" as="geometry" />
        </mxCell>
        <mxCell id="L5nCu_Zbsk3tijszvhnK-2" value="10.10.0.40/27" style="text;html=1;align=center;verticalAlign=middle;whiteSpace=wrap;rounded=0;" parent="1" vertex="1">
          <mxGeometry x="70" y="1060" width="60" height="30" as="geometry" />
        </mxCell>
        <mxCell id="L5nCu_Zbsk3tijszvhnK-3" value="" style="endArrow=none;html=1;rounded=0;" parent="1" edge="1">
          <mxGeometry width="50" height="50" relative="1" as="geometry">
            <mxPoint x="99.5" y="970" as="sourcePoint" />
            <mxPoint x="100" y="910" as="targetPoint" />
          </mxGeometry>
        </mxCell>
        <mxCell id="L5nCu_Zbsk3tijszvhnK-4" value="ssh" style="ellipse;shape=cloud;whiteSpace=wrap;html=1;" parent="1" vertex="1">
          <mxGeometry x="40" y="850" width="120" height="80" as="geometry" />
        </mxCell>
        <mxCell id="L5nCu_Zbsk3tijszvhnK-5" value="red-internet-host" style="ellipse;whiteSpace=wrap;html=1;aspect=fixed;" parent="1" vertex="1">
          <mxGeometry x="60" y="710" width="80" height="80" as="geometry" />
        </mxCell>
        <mxCell id="L5nCu_Zbsk3tijszvhnK-6" value="" style="endArrow=none;html=1;rounded=0;entryX=0.5;entryY=1;entryDx=0;entryDy=0;" parent="1" target="L5nCu_Zbsk3tijszvhnK-5" edge="1">
          <mxGeometry width="50" height="50" relative="1" as="geometry">
            <mxPoint x="100" y="860" as="sourcePoint" />
            <mxPoint x="150" y="820" as="targetPoint" />
          </mxGeometry>
        </mxCell>
        <mxCell id="L5nCu_Zbsk3tijszvhnK-7" value="10.0.0.33/27" style="text;html=1;align=center;verticalAlign=middle;whiteSpace=wrap;rounded=0;" parent="1" vertex="1">
          <mxGeometry x="106" y="786" width="60" height="30" as="geometry" />
        </mxCell>
        <mxCell id="L5nCu_Zbsk3tijszvhnK-8" value="" style="endArrow=none;html=1;rounded=0;" parent="1" edge="1">
          <mxGeometry width="50" height="50" relative="1" as="geometry">
            <mxPoint x="100" y="710" as="sourcePoint" />
            <mxPoint x="100" y="640" as="targetPoint" />
          </mxGeometry>
        </mxCell>
        <mxCell id="L5nCu_Zbsk3tijszvhnK-9" value="ssh" style="ellipse;shape=cloud;whiteSpace=wrap;html=1;" parent="1" vertex="1">
          <mxGeometry x="40" y="570" width="120" height="80" as="geometry" />
        </mxCell>
        <mxCell id="L5nCu_Zbsk3tijszvhnK-10" value="" style="endArrow=none;html=1;rounded=0;exitX=0.975;exitY=0.613;exitDx=0;exitDy=0;exitPerimeter=0;" parent="1" edge="1">
          <mxGeometry width="50" height="50" relative="1" as="geometry">
            <mxPoint x="460" y="630" as="sourcePoint" />
            <mxPoint x="700" y="630" as="targetPoint" />
          </mxGeometry>
        </mxCell>
        <mxCell id="L5nCu_Zbsk3tijszvhnK-11" value="" style="whiteSpace=wrap;html=1;aspect=fixed;" parent="1" vertex="1">
          <mxGeometry x="700" y="510" width="230" height="230" as="geometry" />
        </mxCell>
        <mxCell id="L5nCu_Zbsk3tijszvhnK-12" value="Red Boundry Route&lt;span style=&quot;background-color: transparent; color: light-dark(rgb(0, 0, 0), rgb(255, 255, 255));&quot;&gt;r&lt;/span&gt;&lt;div&gt;&lt;span style=&quot;background-color: transparent; color: light-dark(rgb(0, 0, 0), rgb(255, 255, 255));&quot;&gt;&lt;br&gt;&lt;/span&gt;&lt;/div&gt;&lt;div&gt;&lt;span style=&quot;background-color: transparent; color: light-dark(rgb(0, 0, 0), rgb(255, 255, 255));&quot;&gt;Vyos&lt;/span&gt;&lt;/div&gt;" style="text;html=1;align=center;verticalAlign=middle;whiteSpace=wrap;rounded=0;" parent="1" vertex="1">
          <mxGeometry x="785" y="530" width="60" height="30" as="geometry" />
        </mxCell>
        <mxCell id="L5nCu_Zbsk3tijszvhnK-13" value="172.16.120.1/29" style="text;html=1;align=center;verticalAlign=middle;whiteSpace=wrap;rounded=0;" parent="1" vertex="1">
          <mxGeometry x="618" y="600" width="60" height="30" as="geometry" />
        </mxCell>
        <mxCell id="L5nCu_Zbsk3tijszvhnK-14" value="Eth0" style="whiteSpace=wrap;html=1;aspect=fixed;" parent="1" vertex="1">
          <mxGeometry x="700" y="610" width="40" height="40" as="geometry" />
        </mxCell>
        <mxCell id="L5nCu_Zbsk3tijszvhnK-15" value="Eth2" style="whiteSpace=wrap;html=1;aspect=fixed;" parent="1" vertex="1">
          <mxGeometry x="890" y="660" width="40" height="40" as="geometry" />
        </mxCell>
        <mxCell id="L5nCu_Zbsk3tijszvhnK-16" value="Eth1" style="whiteSpace=wrap;html=1;aspect=fixed;" parent="1" vertex="1">
          <mxGeometry x="890" y="550" width="40" height="40" as="geometry" />
        </mxCell>
        <mxCell id="L5nCu_Zbsk3tijszvhnK-17" value="&quot;Internet&quot;" style="text;html=1;align=center;verticalAlign=middle;whiteSpace=wrap;rounded=0;" parent="1" vertex="1">
          <mxGeometry x="620" y="629" width="60" height="30" as="geometry" />
        </mxCell>
        <mxCell id="L5nCu_Zbsk3tijszvhnK-18" value="" style="endArrow=none;html=1;rounded=0;" parent="1" edge="1">
          <mxGeometry width="50" height="50" relative="1" as="geometry">
            <mxPoint x="930" y="569.71" as="sourcePoint" />
            <mxPoint x="1390" y="570" as="targetPoint" />
          </mxGeometry>
        </mxCell>
        <mxCell id="L5nCu_Zbsk3tijszvhnK-19" value="" style="endArrow=none;html=1;rounded=0;" parent="1" edge="1">
          <mxGeometry width="50" height="50" relative="1" as="geometry">
            <mxPoint x="930" y="679.71" as="sourcePoint" />
            <mxPoint x="1070" y="679.71" as="targetPoint" />
          </mxGeometry>
        </mxCell>
        <mxCell id="L5nCu_Zbsk3tijszvhnK-20" value="172.16.120.10/29" style="text;html=1;align=center;verticalAlign=middle;whiteSpace=wrap;rounded=0;" parent="1" vertex="1">
          <mxGeometry x="950" y="550" width="60" height="30" as="geometry" />
        </mxCell>
        <mxCell id="L5nCu_Zbsk3tijszvhnK-21" value="172.16.101.30/27" style="text;html=1;align=center;verticalAlign=middle;whiteSpace=wrap;rounded=0;" parent="1" vertex="1">
          <mxGeometry x="950" y="659" width="60" height="30" as="geometry" />
        </mxCell>
        <mxCell id="L5nCu_Zbsk3tijszvhnK-22" value="&quot;REDNET&quot;" style="text;html=1;align=center;verticalAlign=middle;whiteSpace=wrap;rounded=0;" parent="1" vertex="1">
          <mxGeometry x="940" y="570" width="60" height="30" as="geometry" />
        </mxCell>
        <mxCell id="L5nCu_Zbsk3tijszvhnK-23" value="&quot;DMZ&quot;" style="text;html=1;align=center;verticalAlign=middle;whiteSpace=wrap;rounded=0;" parent="1" vertex="1">
          <mxGeometry x="940" y="680" width="60" height="30" as="geometry" />
        </mxCell>
        <mxCell id="L5nCu_Zbsk3tijszvhnK-24" value="" style="endArrow=none;html=1;rounded=0;" parent="1" edge="1">
          <mxGeometry width="50" height="50" relative="1" as="geometry">
            <mxPoint x="1070" y="710" as="sourcePoint" />
            <mxPoint x="1070" y="680" as="targetPoint" />
          </mxGeometry>
        </mxCell>
        <mxCell id="L5nCu_Zbsk3tijszvhnK-25" value="" style="shape=link;html=1;rounded=0;strokeWidth=4;width=-3.7142857142857144;" parent="1" edge="1">
          <mxGeometry width="100" relative="1" as="geometry">
            <mxPoint x="1020" y="710" as="sourcePoint" />
            <mxPoint x="1120" y="710" as="targetPoint" />
          </mxGeometry>
        </mxCell>
        <mxCell id="L5nCu_Zbsk3tijszvhnK-26" value="" style="endArrow=none;html=1;rounded=0;" parent="1" edge="1">
          <mxGeometry width="50" height="50" relative="1" as="geometry">
            <mxPoint x="1120" y="760" as="sourcePoint" />
            <mxPoint x="1120" y="710" as="targetPoint" />
          </mxGeometry>
        </mxCell>
        <mxCell id="L5nCu_Zbsk3tijszvhnK-27" value=".2&lt;div&gt;open ports: 22&lt;/div&gt;" style="ellipse;whiteSpace=wrap;html=1;aspect=fixed;" parent="1" vertex="1">
          <mxGeometry x="1080" y="756" width="80" height="80" as="geometry" />
        </mxCell>
        <mxCell id="L5nCu_Zbsk3tijszvhnK-28" value="red-dmz-host-1" style="text;html=1;align=center;verticalAlign=middle;whiteSpace=wrap;rounded=0;" parent="1" vertex="1">
          <mxGeometry x="1090" y="836" width="60" height="30" as="geometry" />
        </mxCell>
        <mxCell id="L5nCu_Zbsk3tijszvhnK-29" value="" style="endArrow=none;html=1;rounded=0;" parent="1" edge="1">
          <mxGeometry width="50" height="50" relative="1" as="geometry">
            <mxPoint x="1390" y="600" as="sourcePoint" />
            <mxPoint x="1390" y="570" as="targetPoint" />
          </mxGeometry>
        </mxCell>
        <mxCell id="L5nCu_Zbsk3tijszvhnK-30" value="" style="shape=link;html=1;rounded=0;strokeWidth=4;width=-3.7142857142857144;" parent="1" edge="1">
          <mxGeometry width="100" relative="1" as="geometry">
            <mxPoint x="1340" y="600" as="sourcePoint" />
            <mxPoint x="1520" y="600" as="targetPoint" />
          </mxGeometry>
        </mxCell>
        <mxCell id="L5nCu_Zbsk3tijszvhnK-31" value="" style="endArrow=none;html=1;rounded=0;" parent="1" edge="1">
          <mxGeometry width="50" height="50" relative="1" as="geometry">
            <mxPoint x="1340" y="654" as="sourcePoint" />
            <mxPoint x="1340" y="604" as="targetPoint" />
          </mxGeometry>
        </mxCell>
        <mxCell id="L5nCu_Zbsk3tijszvhnK-32" value="RED-IPS&lt;div&gt;Vyos&lt;br&gt;&lt;div&gt;&lt;br&gt;&lt;/div&gt;&lt;/div&gt;" style="whiteSpace=wrap;html=1;aspect=fixed;" parent="1" vertex="1">
          <mxGeometry x="1300" y="655" width="80" height="80" as="geometry" />
        </mxCell>
        <mxCell id="L5nCu_Zbsk3tijszvhnK-33" value="eth0" style="whiteSpace=wrap;html=1;aspect=fixed;" parent="1" vertex="1">
          <mxGeometry x="1330" y="655" width="20" height="20" as="geometry" />
        </mxCell>
        <mxCell id="L5nCu_Zbsk3tijszvhnK-34" value="eth1" style="whiteSpace=wrap;html=1;aspect=fixed;" parent="1" vertex="1">
          <mxGeometry x="1360" y="715" width="20" height="20" as="geometry" />
        </mxCell>
        <mxCell id="L5nCu_Zbsk3tijszvhnK-35" value="" style="endArrow=none;html=1;rounded=0;" parent="1" edge="1">
          <mxGeometry width="50" height="50" relative="1" as="geometry">
            <mxPoint x="1380" y="724.83" as="sourcePoint" />
            <mxPoint x="1480" y="725" as="targetPoint" />
          </mxGeometry>
        </mxCell>
        <mxCell id="L5nCu_Zbsk3tijszvhnK-36" value="172.16.120.18/29" style="text;html=1;align=center;verticalAlign=middle;whiteSpace=wrap;rounded=0;" parent="1" vertex="1">
          <mxGeometry x="1420" y="710" width="16" height="15" as="geometry" />
        </mxCell>
        <mxCell id="L5nCu_Zbsk3tijszvhnK-37" value="172.16.120.9/29" style="text;html=1;align=center;verticalAlign=middle;whiteSpace=wrap;rounded=0;" parent="1" vertex="1">
          <mxGeometry x="1260" y="630" width="60" height="30" as="geometry" />
        </mxCell>
        <mxCell id="L5nCu_Zbsk3tijszvhnK-38" value="RED-POP&lt;div&gt;Vyos&lt;br&gt;&lt;div&gt;&lt;br&gt;&lt;/div&gt;&lt;/div&gt;" style="whiteSpace=wrap;html=1;aspect=fixed;" parent="1" vertex="1">
          <mxGeometry x="1300" y="756" width="80" height="80" as="geometry" />
        </mxCell>
        <mxCell id="L5nCu_Zbsk3tijszvhnK-39" value="eth0" style="whiteSpace=wrap;html=1;aspect=fixed;" parent="1" vertex="1">
          <mxGeometry x="1360" y="816" width="20" height="20" as="geometry" />
        </mxCell>
        <mxCell id="L5nCu_Zbsk3tijszvhnK-40" value="" style="endArrow=none;html=1;rounded=0;" parent="1" edge="1">
          <mxGeometry width="50" height="50" relative="1" as="geometry">
            <mxPoint x="1480" y="830" as="sourcePoint" />
            <mxPoint x="1480" y="725" as="targetPoint" />
          </mxGeometry>
        </mxCell>
        <mxCell id="L5nCu_Zbsk3tijszvhnK-41" value="" style="endArrow=none;html=1;rounded=0;" parent="1" edge="1">
          <mxGeometry width="50" height="50" relative="1" as="geometry">
            <mxPoint x="1380" y="825.8" as="sourcePoint" />
            <mxPoint x="1480" y="826" as="targetPoint" />
          </mxGeometry>
        </mxCell>
        <mxCell id="L5nCu_Zbsk3tijszvhnK-42" value="172.16.120.17/29" style="text;html=1;align=center;verticalAlign=middle;whiteSpace=wrap;rounded=0;" parent="1" vertex="1">
          <mxGeometry x="1420" y="810" width="16" height="15" as="geometry" />
        </mxCell>
        <mxCell id="L5nCu_Zbsk3tijszvhnK-43" value="eth1" style="whiteSpace=wrap;html=1;aspect=fixed;" parent="1" vertex="1">
          <mxGeometry x="1330" y="816" width="20" height="20" as="geometry" />
        </mxCell>
        <mxCell id="L5nCu_Zbsk3tijszvhnK-44" value="eth2" style="whiteSpace=wrap;html=1;aspect=fixed;" parent="1" vertex="1">
          <mxGeometry x="1300" y="816" width="20" height="20" as="geometry" />
        </mxCell>
        <mxCell id="L5nCu_Zbsk3tijszvhnK-45" value="" style="endArrow=none;html=1;rounded=0;" parent="1" edge="1">
          <mxGeometry width="50" height="50" relative="1" as="geometry">
            <mxPoint x="1520" y="650" as="sourcePoint" />
            <mxPoint x="1520" y="600" as="targetPoint" />
          </mxGeometry>
        </mxCell>
        <mxCell id="L5nCu_Zbsk3tijszvhnK-46" value=".1" style="ellipse;whiteSpace=wrap;html=1;aspect=fixed;" parent="1" vertex="1">
          <mxGeometry x="1480" y="646" width="80" height="80" as="geometry" />
        </mxCell>
        <mxCell id="L5nCu_Zbsk3tijszvhnK-47" value="&quot;REDNET&quot;" style="text;html=1;align=center;verticalAlign=middle;whiteSpace=wrap;rounded=0;" parent="1" vertex="1">
          <mxGeometry x="1398" y="725" width="60" height="30" as="geometry" />
        </mxCell>
        <mxCell id="L5nCu_Zbsk3tijszvhnK-48" value="&quot;INTERNET&quot;" style="text;html=1;align=center;verticalAlign=middle;whiteSpace=wrap;rounded=0;" parent="1" vertex="1">
          <mxGeometry x="1400" y="825" width="60" height="30" as="geometry" />
        </mxCell>
        <mxCell id="L5nCu_Zbsk3tijszvhnK-49" value="" style="endArrow=none;html=1;rounded=0;" parent="1" edge="1">
          <mxGeometry width="50" height="50" relative="1" as="geometry">
            <mxPoint x="1340" y="880" as="sourcePoint" />
            <mxPoint x="1339.76" y="835" as="targetPoint" />
          </mxGeometry>
        </mxCell>
        <mxCell id="L5nCu_Zbsk3tijszvhnK-50" value="" style="endArrow=none;html=1;rounded=0;" parent="1" edge="1">
          <mxGeometry width="50" height="50" relative="1" as="geometry">
            <mxPoint x="1310" y="880" as="sourcePoint" />
            <mxPoint x="1309.76" y="836" as="targetPoint" />
          </mxGeometry>
        </mxCell>
        <mxCell id="L5nCu_Zbsk3tijszvhnK-51" value="" style="endArrow=none;html=1;rounded=0;" parent="1" edge="1">
          <mxGeometry width="50" height="50" relative="1" as="geometry">
            <mxPoint x="1510" y="880" as="sourcePoint" />
            <mxPoint x="1340" y="880" as="targetPoint" />
          </mxGeometry>
        </mxCell>
        <mxCell id="L5nCu_Zbsk3tijszvhnK-52" value="" style="endArrow=none;html=1;rounded=0;" parent="1" edge="1">
          <mxGeometry width="50" height="50" relative="1" as="geometry">
            <mxPoint x="1310.24" y="880" as="sourcePoint" />
            <mxPoint x="1200" y="880" as="targetPoint" />
          </mxGeometry>
        </mxCell>
        <mxCell id="hHOc2Fbfp9tJ3TWlhPiR-1" value="172.16.182.126/27" style="text;html=1;align=center;verticalAlign=middle;whiteSpace=wrap;rounded=0;" vertex="1" parent="1">
          <mxGeometry x="1360" y="855" width="60" height="30" as="geometry" />
        </mxCell>
        <mxCell id="hHOc2Fbfp9tJ3TWlhPiR-2" value="172.16.140.6/29" style="text;html=1;align=center;verticalAlign=middle;whiteSpace=wrap;rounded=0;" vertex="1" parent="1">
          <mxGeometry x="1230" y="855" width="60" height="30" as="geometry" />
        </mxCell>
        <mxCell id="hHOc2Fbfp9tJ3TWlhPiR-3" value="REDHOSTS" style="text;html=1;align=center;verticalAlign=middle;whiteSpace=wrap;rounded=0;" vertex="1" parent="1">
          <mxGeometry x="1350" y="875" width="60" height="30" as="geometry" />
        </mxCell>
        <mxCell id="hHOc2Fbfp9tJ3TWlhPiR-4" value="REDINTDMZ" style="text;html=1;align=center;verticalAlign=middle;whiteSpace=wrap;rounded=0;" vertex="1" parent="1">
          <mxGeometry x="1245" y="875" width="60" height="30" as="geometry" />
        </mxCell>
        <mxCell id="hHOc2Fbfp9tJ3TWlhPiR-5" value="" style="endArrow=none;html=1;rounded=0;" edge="1" parent="1">
          <mxGeometry width="50" height="50" relative="1" as="geometry">
            <mxPoint x="1510" y="920" as="sourcePoint" />
            <mxPoint x="1510" y="880" as="targetPoint" />
          </mxGeometry>
        </mxCell>
        <mxCell id="hHOc2Fbfp9tJ3TWlhPiR-6" value="" style="shape=link;html=1;rounded=0;width=-6.4;strokeWidth=4;" edge="1" parent="1">
          <mxGeometry width="100" relative="1" as="geometry">
            <mxPoint x="1340" y="920" as="sourcePoint" />
            <mxPoint x="1600" y="920" as="targetPoint" />
          </mxGeometry>
        </mxCell>
        <mxCell id="hHOc2Fbfp9tJ3TWlhPiR-7" value="" style="endArrow=none;html=1;rounded=0;" edge="1" parent="1">
          <mxGeometry width="50" height="50" relative="1" as="geometry">
            <mxPoint x="1340.76" y="970" as="sourcePoint" />
            <mxPoint x="1340.76" y="920" as="targetPoint" />
          </mxGeometry>
        </mxCell>
        <mxCell id="hHOc2Fbfp9tJ3TWlhPiR-8" value=".106" style="ellipse;whiteSpace=wrap;html=1;aspect=fixed;" vertex="1" parent="1">
          <mxGeometry x="1307" y="970" width="68" height="68" as="geometry" />
        </mxCell>
        <mxCell id="hHOc2Fbfp9tJ3TWlhPiR-9" value="" style="endArrow=none;html=1;rounded=0;" edge="1" parent="1">
          <mxGeometry width="50" height="50" relative="1" as="geometry">
            <mxPoint x="1433.76" y="970" as="sourcePoint" />
            <mxPoint x="1433.76" y="920" as="targetPoint" />
          </mxGeometry>
        </mxCell>
        <mxCell id="hHOc2Fbfp9tJ3TWlhPiR-10" value=".110" style="ellipse;whiteSpace=wrap;html=1;aspect=fixed;" vertex="1" parent="1">
          <mxGeometry x="1400" y="970" width="68" height="68" as="geometry" />
        </mxCell>
        <mxCell id="hHOc2Fbfp9tJ3TWlhPiR-11" value="" style="endArrow=none;html=1;rounded=0;" edge="1" parent="1">
          <mxGeometry width="50" height="50" relative="1" as="geometry">
            <mxPoint x="1525.76" y="970" as="sourcePoint" />
            <mxPoint x="1525.76" y="920" as="targetPoint" />
          </mxGeometry>
        </mxCell>
        <mxCell id="hHOc2Fbfp9tJ3TWlhPiR-12" value=".114" style="ellipse;whiteSpace=wrap;html=1;aspect=fixed;" vertex="1" parent="1">
          <mxGeometry x="1492" y="970" width="68" height="68" as="geometry" />
        </mxCell>
        <mxCell id="hHOc2Fbfp9tJ3TWlhPiR-13" value="" style="endArrow=none;html=1;rounded=0;" edge="1" parent="1">
          <mxGeometry width="50" height="50" relative="1" as="geometry">
            <mxPoint x="1598.76" y="970" as="sourcePoint" />
            <mxPoint x="1598.76" y="920" as="targetPoint" />
          </mxGeometry>
        </mxCell>
        <mxCell id="hHOc2Fbfp9tJ3TWlhPiR-14" value=".118" style="ellipse;whiteSpace=wrap;html=1;aspect=fixed;" vertex="1" parent="1">
          <mxGeometry x="1565" y="970" width="68" height="68" as="geometry" />
        </mxCell>
        <mxCell id="hHOc2Fbfp9tJ3TWlhPiR-15" value="red-host-1" style="text;html=1;align=center;verticalAlign=middle;whiteSpace=wrap;rounded=0;" vertex="1" parent="1">
          <mxGeometry x="1310" y="1030" width="60" height="30" as="geometry" />
        </mxCell>
        <mxCell id="hHOc2Fbfp9tJ3TWlhPiR-16" value="RED-POP2&lt;div&gt;Vyos&lt;/div&gt;" style="whiteSpace=wrap;html=1;aspect=fixed;" vertex="1" parent="1">
          <mxGeometry x="1160" y="920" width="80" height="80" as="geometry" />
        </mxCell>
        <mxCell id="hHOc2Fbfp9tJ3TWlhPiR-17" value="" style="endArrow=none;html=1;rounded=0;" edge="1" parent="1">
          <mxGeometry width="50" height="50" relative="1" as="geometry">
            <mxPoint x="1199.8" y="920" as="sourcePoint" />
            <mxPoint x="1199.8" y="880" as="targetPoint" />
          </mxGeometry>
        </mxCell>
        <mxCell id="hHOc2Fbfp9tJ3TWlhPiR-18" value="eth0" style="whiteSpace=wrap;html=1;aspect=fixed;" vertex="1" parent="1">
          <mxGeometry x="1190" y="920" width="20" height="20" as="geometry" />
        </mxCell>
        <mxCell id="hHOc2Fbfp9tJ3TWlhPiR-19" value="eth1" style="whiteSpace=wrap;html=1;aspect=fixed;" vertex="1" parent="1">
          <mxGeometry x="1160" y="980" width="20" height="20" as="geometry" />
        </mxCell>
        <mxCell id="hHOc2Fbfp9tJ3TWlhPiR-20" value="172.16.140.5/29" style="text;html=1;align=center;verticalAlign=middle;whiteSpace=wrap;rounded=0;" vertex="1" parent="1">
          <mxGeometry x="1120" y="900" width="60" height="30" as="geometry" />
        </mxCell>
        <mxCell id="hHOc2Fbfp9tJ3TWlhPiR-21" value="" style="endArrow=none;html=1;rounded=0;" edge="1" parent="1">
          <mxGeometry width="50" height="50" relative="1" as="geometry">
            <mxPoint x="1170" y="1040" as="sourcePoint" />
            <mxPoint x="1169.8" y="1000" as="targetPoint" />
          </mxGeometry>
        </mxCell>
        <mxCell id="hHOc2Fbfp9tJ3TWlhPiR-22" value="" style="shape=link;html=1;rounded=0;strokeWidth=4;width=-3.7142857142857144;" edge="1" parent="1">
          <mxGeometry width="100" relative="1" as="geometry">
            <mxPoint x="1120" y="1038" as="sourcePoint" />
            <mxPoint x="1220" y="1038" as="targetPoint" />
          </mxGeometry>
        </mxCell>
        <mxCell id="hHOc2Fbfp9tJ3TWlhPiR-23" value="" style="endArrow=none;html=1;rounded=0;" edge="1" parent="1">
          <mxGeometry width="50" height="50" relative="1" as="geometry">
            <mxPoint x="1119.76" y="1088" as="sourcePoint" />
            <mxPoint x="1119.76" y="1038" as="targetPoint" />
          </mxGeometry>
        </mxCell>
        <mxCell id="hHOc2Fbfp9tJ3TWlhPiR-24" value=".33" style="ellipse;whiteSpace=wrap;html=1;aspect=fixed;" vertex="1" parent="1">
          <mxGeometry x="1086" y="1088" width="68" height="68" as="geometry" />
        </mxCell>
        <mxCell id="hHOc2Fbfp9tJ3TWlhPiR-25" value="" style="endArrow=none;html=1;rounded=0;" edge="1" parent="1">
          <mxGeometry width="50" height="50" relative="1" as="geometry">
            <mxPoint x="1213.76" y="1088" as="sourcePoint" />
            <mxPoint x="1213.76" y="1038" as="targetPoint" />
          </mxGeometry>
        </mxCell>
        <mxCell id="hHOc2Fbfp9tJ3TWlhPiR-26" value=".35" style="ellipse;whiteSpace=wrap;html=1;aspect=fixed;" vertex="1" parent="1">
          <mxGeometry x="1180" y="1088" width="68" height="68" as="geometry" />
        </mxCell>
        <mxCell id="hHOc2Fbfp9tJ3TWlhPiR-27" value="red-int-dmz2-host-2" style="text;html=1;align=center;verticalAlign=middle;whiteSpace=wrap;rounded=0;" vertex="1" parent="1">
          <mxGeometry x="1188" y="1162" width="60" height="30" as="geometry" />
        </mxCell>
        <mxCell id="hHOc2Fbfp9tJ3TWlhPiR-28" value="172.16.140.62/27" style="text;html=1;align=center;verticalAlign=middle;whiteSpace=wrap;rounded=0;" vertex="1" parent="1">
          <mxGeometry x="1094" y="1010" width="60" height="30" as="geometry" />
        </mxCell>
        <mxCell id="hHOc2Fbfp9tJ3TWlhPiR-29" value="REDINTDMZ2" style="text;html=1;align=center;verticalAlign=middle;whiteSpace=wrap;rounded=0;" vertex="1" parent="1">
          <mxGeometry x="1188" y="1008" width="60" height="30" as="geometry" />
        </mxCell>
        <mxCell id="hHOc2Fbfp9tJ3TWlhPiR-30" value="red-host-3" style="text;html=1;align=center;verticalAlign=middle;whiteSpace=wrap;rounded=0;" vertex="1" parent="1">
          <mxGeometry x="1496" y="1040" width="60" height="30" as="geometry" />
        </mxCell>
        <mxCell id="hHOc2Fbfp9tJ3TWlhPiR-31" value="red-host-4" style="text;html=1;align=center;verticalAlign=middle;whiteSpace=wrap;rounded=0;" vertex="1" parent="1">
          <mxGeometry x="1573" y="1038" width="60" height="30" as="geometry" />
        </mxCell>
        <mxCell id="hHOc2Fbfp9tJ3TWlhPiR-32" value="UDP Ports:&lt;br&gt;2000&lt;div&gt;2011&lt;/div&gt;&lt;div&gt;2200&lt;/div&gt;&lt;div&gt;2250&lt;/div&gt;&lt;div&gt;2999&lt;/div&gt;" style="text;html=1;align=center;verticalAlign=middle;whiteSpace=wrap;rounded=0;" vertex="1" parent="1">
          <mxGeometry x="1073" y="1184" width="60" height="30" as="geometry" />
        </mxCell>
        <mxCell id="hHOc2Fbfp9tJ3TWlhPiR-33" value="TCP Port:&amp;nbsp;&lt;div&gt;22&lt;/div&gt;" style="text;html=1;align=center;verticalAlign=middle;whiteSpace=wrap;rounded=0;" vertex="1" parent="1">
          <mxGeometry x="1310" y="1050" width="60" height="30" as="geometry" />
        </mxCell>
        <mxCell id="hHOc2Fbfp9tJ3TWlhPiR-34" value="TCP Port:&amp;nbsp;&lt;div&gt;22&lt;/div&gt;" style="text;html=1;align=center;verticalAlign=middle;whiteSpace=wrap;rounded=0;" vertex="1" parent="1">
          <mxGeometry x="1496" y="1068" width="60" height="30" as="geometry" />
        </mxCell>
        <mxCell id="hHOc2Fbfp9tJ3TWlhPiR-35" value="TCP Port:&amp;nbsp;&lt;div&gt;22&lt;/div&gt;" style="text;html=1;align=center;verticalAlign=middle;whiteSpace=wrap;rounded=0;" vertex="1" parent="1">
          <mxGeometry x="1573" y="1068" width="60" height="30" as="geometry" />
        </mxCell>
        <mxCell id="hHOc2Fbfp9tJ3TWlhPiR-36" value="TCP Port:&amp;nbsp;&lt;div&gt;22&lt;/div&gt;" style="text;html=1;align=center;verticalAlign=middle;whiteSpace=wrap;rounded=0;" vertex="1" parent="1">
          <mxGeometry x="1496" y="726" width="60" height="30" as="geometry" />
        </mxCell>
        <mxCell id="hHOc2Fbfp9tJ3TWlhPiR-37" value="TCP Port:&amp;nbsp;&lt;div&gt;22&lt;/div&gt;" style="text;html=1;align=center;verticalAlign=middle;whiteSpace=wrap;rounded=0;" vertex="1" parent="1">
          <mxGeometry x="785" y="590" width="60" height="30" as="geometry" />
        </mxCell>
        <mxCell id="hHOc2Fbfp9tJ3TWlhPiR-38" value="TCP Port:&amp;nbsp;&lt;div&gt;22&lt;/div&gt;" style="text;html=1;align=center;verticalAlign=middle;whiteSpace=wrap;rounded=0;strokeWidth=0;fontSize=4;" vertex="1" parent="1">
          <mxGeometry x="1350" y="780" width="40" height="30" as="geometry" />
        </mxCell>
        <mxCell id="hHOc2Fbfp9tJ3TWlhPiR-39" value="TCP Port:&amp;nbsp;&lt;div&gt;22&lt;/div&gt;" style="text;html=1;align=center;verticalAlign=middle;whiteSpace=wrap;rounded=0;strokeWidth=0;fontSize=4;" vertex="1" parent="1">
          <mxGeometry x="1300" y="700" width="40" height="30" as="geometry" />
        </mxCell>
        <mxCell id="hHOc2Fbfp9tJ3TWlhPiR-40" value="TCP Port:&amp;nbsp;&lt;div&gt;22&lt;/div&gt;" style="text;html=1;align=center;verticalAlign=middle;whiteSpace=wrap;rounded=0;strokeWidth=0;fontSize=4;" vertex="1" parent="1">
          <mxGeometry x="1205" y="978" width="40" height="30" as="geometry" />
        </mxCell>
        <mxCell id="hHOc2Fbfp9tJ3TWlhPiR-41" value="UDP Ports:&lt;br&gt;1984&lt;div&gt;1989&lt;/div&gt;" style="text;html=1;align=center;verticalAlign=middle;whiteSpace=wrap;rounded=0;" vertex="1" parent="1">
          <mxGeometry x="1408" y="1058" width="60" height="30" as="geometry" />
        </mxCell>
        <mxCell id="hHOc2Fbfp9tJ3TWlhPiR-42" value="TCP Ports:&lt;div&gt;22&lt;/div&gt;&lt;div&gt;80&lt;/div&gt;&lt;div&gt;1980&lt;/div&gt;&lt;div&gt;1982&lt;/div&gt;&lt;div&gt;1988&lt;/div&gt;&lt;div&gt;1989&lt;/div&gt;" style="text;html=1;align=center;verticalAlign=middle;whiteSpace=wrap;rounded=0;" vertex="1" parent="1">
          <mxGeometry x="1410" y="1150" width="60" height="27" as="geometry" />
        </mxCell>
      </root>
    </mxGraphModel>
  </diagram>
</mxfile>
